<mxfile host="app.diagrams.net" agent="Mozilla/5.0 (Windows NT 10.0; Win64; x64) AppleWebKit/537.36 (KHTML, like Gecko) Chrome/138.0.0.0 Safari/537.36" version="27.1.6">
  <diagram name="Página-1" id="IpmAKofrDw2QBqaIdOL2">
    <mxGraphModel grid="1" page="1" gridSize="10" guides="1" tooltips="1" connect="1" arrows="1" fold="1" pageScale="1" pageWidth="827" pageHeight="1169" math="0" shadow="0">
      <root>
        <mxCell id="0" />
        <mxCell id="1" parent="0" />
        <mxCell id="emeNvtZWzEPwYmurZ9CY-1" value="CU044 Eliminar imagen" style="swimlane;childLayout=stackLayout;resizeParent=1;resizeParentMax=0;startSize=20;horizontal=0;horizontalStack=1;" vertex="1" parent="1">
          <mxGeometry x="-300" y="-984" width="795" height="850" as="geometry">
            <mxRectangle x="200" y="80" width="40" height="50" as="alternateBounds" />
          </mxGeometry>
        </mxCell>
        <mxCell id="emeNvtZWzEPwYmurZ9CY-83" style="edgeStyle=orthogonalEdgeStyle;rounded=0;orthogonalLoop=1;jettySize=auto;html=1;exitX=1;exitY=0.5;exitDx=0;exitDy=0;strokeColor=light-dark(#ff0000, #ededed);entryX=0.583;entryY=0;entryDx=0;entryDy=0;entryPerimeter=0;" edge="1" parent="emeNvtZWzEPwYmurZ9CY-1" source="MkEyBu7R_c_1ipwITK1c-3" target="emeNvtZWzEPwYmurZ9CY-35">
          <mxGeometry relative="1" as="geometry">
            <mxPoint x="392" y="220" as="sourcePoint" />
          </mxGeometry>
        </mxCell>
        <mxCell id="emeNvtZWzEPwYmurZ9CY-85" value="si" style="edgeLabel;html=1;align=center;verticalAlign=middle;resizable=0;points=[];" vertex="1" connectable="0" parent="emeNvtZWzEPwYmurZ9CY-83">
          <mxGeometry x="-0.7201" y="-1" relative="1" as="geometry">
            <mxPoint as="offset" />
          </mxGeometry>
        </mxCell>
        <mxCell id="MkEyBu7R_c_1ipwITK1c-5" value="no&amp;nbsp;" style="edgeStyle=orthogonalEdgeStyle;rounded=0;orthogonalLoop=1;jettySize=auto;html=1;entryX=0;entryY=0.5;entryDx=0;entryDy=0;fillColor=#FF0000;strokeColor=light-dark(#ff0000, #ededed);exitX=0;exitY=0.5;exitDx=0;exitDy=0;" edge="1" parent="emeNvtZWzEPwYmurZ9CY-1" source="MkEyBu7R_c_1ipwITK1c-3" target="emeNvtZWzEPwYmurZ9CY-17">
          <mxGeometry relative="1" as="geometry">
            <mxPoint x="790" y="890" as="targetPoint" />
            <Array as="points">
              <mxPoint x="56" y="123" />
              <mxPoint x="56" y="809" />
            </Array>
          </mxGeometry>
        </mxCell>
        <mxCell id="MkEyBu7R_c_1ipwITK1c-48" style="edgeStyle=orthogonalEdgeStyle;rounded=0;orthogonalLoop=1;jettySize=auto;html=1;entryX=0.6;entryY=0.076;entryDx=0;entryDy=0;entryPerimeter=0;strokeColor=#FF0000;" edge="1" parent="emeNvtZWzEPwYmurZ9CY-1" source="emeNvtZWzEPwYmurZ9CY-35" target="MkEyBu7R_c_1ipwITK1c-40">
          <mxGeometry relative="1" as="geometry">
            <mxPoint x="574.4000000000001" y="328.75" as="targetPoint" />
          </mxGeometry>
        </mxCell>
        <mxCell id="MkEyBu7R_c_1ipwITK1c-86" style="edgeStyle=orthogonalEdgeStyle;rounded=0;orthogonalLoop=1;jettySize=auto;html=1;entryX=0;entryY=0.5;entryDx=0;entryDy=0;strokeColor=light-dark(#ff0000, #ededed);" edge="1" parent="emeNvtZWzEPwYmurZ9CY-1" source="MkEyBu7R_c_1ipwITK1c-84" target="MkEyBu7R_c_1ipwITK1c-87">
          <mxGeometry relative="1" as="geometry">
            <mxPoint x="510" y="375" as="targetPoint" />
          </mxGeometry>
        </mxCell>
        <mxCell id="MkEyBu7R_c_1ipwITK1c-89" style="edgeStyle=orthogonalEdgeStyle;rounded=0;orthogonalLoop=1;jettySize=auto;html=1;entryX=0.408;entryY=-0.017;entryDx=0;entryDy=0;entryPerimeter=0;strokeColor=#FF0000;" edge="1" parent="emeNvtZWzEPwYmurZ9CY-1" source="MkEyBu7R_c_1ipwITK1c-87" target="MkEyBu7R_c_1ipwITK1c-88">
          <mxGeometry relative="1" as="geometry">
            <Array as="points">
              <mxPoint x="582" y="430" />
              <mxPoint x="169" y="430" />
            </Array>
          </mxGeometry>
        </mxCell>
        <mxCell id="MkEyBu7R_c_1ipwITK1c-90" style="edgeStyle=orthogonalEdgeStyle;rounded=0;orthogonalLoop=1;jettySize=auto;html=1;strokeColor=#FF0000;entryX=0;entryY=0.5;entryDx=0;entryDy=0;" edge="1" parent="emeNvtZWzEPwYmurZ9CY-1" source="MkEyBu7R_c_1ipwITK1c-88" target="MkEyBu7R_c_1ipwITK1c-96">
          <mxGeometry relative="1" as="geometry">
            <mxPoint x="480" y="500" as="targetPoint" />
          </mxGeometry>
        </mxCell>
        <mxCell id="emeNvtZWzEPwYmurZ9CY-4" value="Administrador" style="swimlane;startSize=20;" vertex="1" parent="emeNvtZWzEPwYmurZ9CY-1">
          <mxGeometry x="20" width="290" height="850" as="geometry" />
        </mxCell>
        <mxCell id="MkEyBu7R_c_1ipwITK1c-4" style="edgeStyle=orthogonalEdgeStyle;rounded=0;orthogonalLoop=1;jettySize=auto;html=1;entryX=0.5;entryY=0;entryDx=0;entryDy=0;" edge="1" parent="emeNvtZWzEPwYmurZ9CY-4" source="emeNvtZWzEPwYmurZ9CY-5" target="MkEyBu7R_c_1ipwITK1c-3">
          <mxGeometry relative="1" as="geometry" />
        </mxCell>
        <mxCell id="emeNvtZWzEPwYmurZ9CY-5" value="" style="ellipse;html=1;shape=startState;fillColor=#000000;strokeColor=#ff0000;fillStyle=auto;" vertex="1" parent="emeNvtZWzEPwYmurZ9CY-4">
          <mxGeometry x="180" y="30" width="30" height="30" as="geometry" />
        </mxCell>
        <mxCell id="MkEyBu7R_c_1ipwITK1c-3" value="Pulsar el aparatado de &quot;Galería&quot;" style="rhombus;whiteSpace=wrap;html=1;fontColor=#000000;fillColor=#ffffc0;strokeColor=#ff0000;" vertex="1" parent="emeNvtZWzEPwYmurZ9CY-4">
          <mxGeometry x="137" y="80" width="116" height="86" as="geometry" />
        </mxCell>
        <mxCell id="MkEyBu7R_c_1ipwITK1c-85" style="edgeStyle=orthogonalEdgeStyle;rounded=0;orthogonalLoop=1;jettySize=auto;html=1;entryX=0.5;entryY=0;entryDx=0;entryDy=0;strokeColor=#FF0000;" edge="1" parent="emeNvtZWzEPwYmurZ9CY-4" source="MkEyBu7R_c_1ipwITK1c-40" target="MkEyBu7R_c_1ipwITK1c-84">
          <mxGeometry relative="1" as="geometry" />
        </mxCell>
        <mxCell id="MkEyBu7R_c_1ipwITK1c-40" value="&amp;nbsp;Pulsa botón &quot;Eliminar imagen&quot;" style="rounded=1;whiteSpace=wrap;html=1;arcSize=40;fontColor=#000000;fillColor=#ffffc0;strokeColor=#ff0000;" vertex="1" parent="emeNvtZWzEPwYmurZ9CY-4">
          <mxGeometry x="90" y="270" width="120" height="50" as="geometry" />
        </mxCell>
        <mxCell id="MkEyBu7R_c_1ipwITK1c-84" value="selecciona la imagen&amp;nbsp;" style="rounded=1;whiteSpace=wrap;html=1;arcSize=40;fontColor=#000000;fillColor=#ffffc0;strokeColor=#ff0000;" vertex="1" parent="emeNvtZWzEPwYmurZ9CY-4">
          <mxGeometry x="90" y="350" width="120" height="50" as="geometry" />
        </mxCell>
        <mxCell id="MkEyBu7R_c_1ipwITK1c-93" style="edgeStyle=orthogonalEdgeStyle;rounded=0;orthogonalLoop=1;jettySize=auto;html=1;entryX=0;entryY=0.5;entryDx=0;entryDy=0;strokeColor=#FF0000;" edge="1" parent="emeNvtZWzEPwYmurZ9CY-4" source="MkEyBu7R_c_1ipwITK1c-88" target="MkEyBu7R_c_1ipwITK1c-40">
          <mxGeometry relative="1" as="geometry">
            <Array as="points">
              <mxPoint x="70" y="490" />
              <mxPoint x="70" y="295" />
            </Array>
          </mxGeometry>
        </mxCell>
        <mxCell id="MkEyBu7R_c_1ipwITK1c-88" value="Pulsa el icono de &quot;eliminar &quot;" style="rounded=1;whiteSpace=wrap;html=1;fillColor=#ffffc0;strokeColor=#ff0000;fontColor=#000000;arcSize=40;" vertex="1" parent="emeNvtZWzEPwYmurZ9CY-4">
          <mxGeometry x="100" y="470" width="120" height="60" as="geometry" />
        </mxCell>
        <mxCell id="MkEyBu7R_c_1ipwITK1c-122" value="Pulsa &quot;Cofirmar&quot;" style="rounded=1;whiteSpace=wrap;html=1;fillColor=#ffffc0;strokeColor=#ff0000;fontColor=#000000;arcSize=40;" vertex="1" parent="emeNvtZWzEPwYmurZ9CY-4">
          <mxGeometry x="110" y="590" width="120" height="60" as="geometry" />
        </mxCell>
        <mxCell id="emeNvtZWzEPwYmurZ9CY-8" value="Sistema" style="swimlane;startSize=20;" vertex="1" parent="emeNvtZWzEPwYmurZ9CY-1">
          <mxGeometry x="310" width="485" height="850" as="geometry" />
        </mxCell>
        <mxCell id="emeNvtZWzEPwYmurZ9CY-17" value="" style="ellipse;html=1;shape=endState;fillColor=#000000;strokeColor=#ff0000;" vertex="1" parent="emeNvtZWzEPwYmurZ9CY-8">
          <mxGeometry x="410" y="794" width="30" height="30" as="geometry" />
        </mxCell>
        <mxCell id="emeNvtZWzEPwYmurZ9CY-35" value="Lo redirige al apartado&amp;nbsp;" style="rounded=1;whiteSpace=wrap;html=1;arcSize=40;fontColor=#000000;fillColor=#ffffc0;strokeColor=#ff0000;" vertex="1" parent="emeNvtZWzEPwYmurZ9CY-8">
          <mxGeometry x="229" y="208" width="120" height="50" as="geometry" />
        </mxCell>
        <mxCell id="MkEyBu7R_c_1ipwITK1c-87" value="Muestra icono de eliminar" style="rounded=1;whiteSpace=wrap;html=1;fillColor=#ffffc0;strokeColor=#ff0000;fontColor=#000000;arcSize=40;" vertex="1" parent="emeNvtZWzEPwYmurZ9CY-8">
          <mxGeometry x="237" y="345" width="120" height="60" as="geometry" />
        </mxCell>
        <mxCell id="MkEyBu7R_c_1ipwITK1c-96" value="Muestra botón &quot;Confirmar&quot;" style="rounded=1;whiteSpace=wrap;html=1;fillColor=#ffffc0;strokeColor=#ff0000;fontColor=#000000;arcSize=40;" vertex="1" parent="emeNvtZWzEPwYmurZ9CY-8">
          <mxGeometry x="205" y="470" width="120" height="60" as="geometry" />
        </mxCell>
        <mxCell id="cStYqShMrgNA76c0SE9h-8" style="edgeStyle=orthogonalEdgeStyle;rounded=0;orthogonalLoop=1;jettySize=auto;html=1;entryX=1;entryY=0.5;entryDx=0;entryDy=0;fontSize=12;startSize=8;endSize=8;" edge="1" parent="emeNvtZWzEPwYmurZ9CY-8" source="cStYqShMrgNA76c0SE9h-1" target="cStYqShMrgNA76c0SE9h-6">
          <mxGeometry relative="1" as="geometry" />
        </mxCell>
        <mxCell id="cStYqShMrgNA76c0SE9h-9" value="no" style="edgeLabel;html=1;align=center;verticalAlign=middle;resizable=0;points=[];fontSize=12;" connectable="0" vertex="1" parent="cStYqShMrgNA76c0SE9h-8">
          <mxGeometry x="-0.5894" relative="1" as="geometry">
            <mxPoint as="offset" />
          </mxGeometry>
        </mxCell>
        <mxCell id="cStYqShMrgNA76c0SE9h-1" value="¿Imagen eliminada?&amp;nbsp;" style="rhombus;whiteSpace=wrap;html=1;fontColor=#000000;fillColor=#ffffc0;strokeColor=#ff0000;" vertex="1" parent="emeNvtZWzEPwYmurZ9CY-8">
          <mxGeometry x="110" y="560" width="110" height="60" as="geometry" />
        </mxCell>
        <mxCell id="cStYqShMrgNA76c0SE9h-2" value="si" style="edgeStyle=orthogonalEdgeStyle;html=1;align=left;verticalAlign=bottom;endArrow=open;endSize=8;strokeColor=#ff0000;rounded=0;fontSize=12;entryX=0.5;entryY=0;entryDx=0;entryDy=0;" edge="1" parent="emeNvtZWzEPwYmurZ9CY-8" source="cStYqShMrgNA76c0SE9h-1" target="cStYqShMrgNA76c0SE9h-5">
          <mxGeometry x="-1" relative="1" as="geometry">
            <mxPoint x="265" y="610" as="targetPoint" />
            <mxPoint as="offset" />
          </mxGeometry>
        </mxCell>
        <mxCell id="cStYqShMrgNA76c0SE9h-11" style="edgeStyle=orthogonalEdgeStyle;rounded=0;orthogonalLoop=1;jettySize=auto;html=1;entryX=0.5;entryY=0;entryDx=0;entryDy=0;fontSize=12;startSize=8;endSize=8;exitX=1;exitY=0.5;exitDx=0;exitDy=0;" edge="1" parent="emeNvtZWzEPwYmurZ9CY-8" source="cStYqShMrgNA76c0SE9h-5" target="cStYqShMrgNA76c0SE9h-13">
          <mxGeometry relative="1" as="geometry" />
        </mxCell>
        <mxCell id="cStYqShMrgNA76c0SE9h-5" value="Eliminar foto de galería" style="rounded=1;whiteSpace=wrap;html=1;fillColor=#ffffc0;strokeColor=#ff0000;fontColor=#000000;arcSize=40;" vertex="1" parent="emeNvtZWzEPwYmurZ9CY-8">
          <mxGeometry x="245" y="620" width="120" height="60" as="geometry" />
        </mxCell>
        <mxCell id="cStYqShMrgNA76c0SE9h-6" value="Mostrar mensaje de error" style="rounded=1;whiteSpace=wrap;html=1;fillColor=#ffffc0;strokeColor=#ff0000;fontColor=#000000;arcSize=40;" vertex="1" parent="emeNvtZWzEPwYmurZ9CY-8">
          <mxGeometry x="20" y="634" width="120" height="60" as="geometry" />
        </mxCell>
        <mxCell id="cStYqShMrgNA76c0SE9h-12" value="si" style="edgeStyle=orthogonalEdgeStyle;html=1;align=left;verticalAlign=bottom;endArrow=open;endSize=8;strokeColor=#ff0000;rounded=0;fontSize=12;entryX=0.5;entryY=0;entryDx=0;entryDy=0;" edge="1" parent="emeNvtZWzEPwYmurZ9CY-8" source="cStYqShMrgNA76c0SE9h-1" target="cStYqShMrgNA76c0SE9h-5">
          <mxGeometry x="-1" relative="1" as="geometry">
            <mxPoint x="315" y="-364" as="targetPoint" />
            <mxPoint x="230" y="-394" as="sourcePoint" />
            <Array as="points">
              <mxPoint x="305" y="590" />
            </Array>
            <mxPoint as="offset" />
          </mxGeometry>
        </mxCell>
        <mxCell id="cStYqShMrgNA76c0SE9h-14" style="edgeStyle=none;curved=1;rounded=0;orthogonalLoop=1;jettySize=auto;html=1;entryX=0.5;entryY=0;entryDx=0;entryDy=0;fontSize=12;startSize=8;endSize=8;" edge="1" parent="emeNvtZWzEPwYmurZ9CY-8" source="cStYqShMrgNA76c0SE9h-13" target="emeNvtZWzEPwYmurZ9CY-17">
          <mxGeometry relative="1" as="geometry" />
        </mxCell>
        <mxCell id="cStYqShMrgNA76c0SE9h-13" value="Mostrar mensaje de éxito" style="rounded=1;whiteSpace=wrap;html=1;fillColor=#ffffc0;strokeColor=#ff0000;fontColor=#000000;arcSize=40;" vertex="1" parent="emeNvtZWzEPwYmurZ9CY-8">
          <mxGeometry x="365" y="674" width="120" height="60" as="geometry" />
        </mxCell>
        <mxCell id="MkEyBu7R_c_1ipwITK1c-123" style="edgeStyle=orthogonalEdgeStyle;rounded=0;orthogonalLoop=1;jettySize=auto;html=1;entryX=0.5;entryY=0;entryDx=0;entryDy=0;" edge="1" parent="emeNvtZWzEPwYmurZ9CY-1" source="MkEyBu7R_c_1ipwITK1c-96" target="MkEyBu7R_c_1ipwITK1c-122">
          <mxGeometry relative="1" as="geometry">
            <Array as="points">
              <mxPoint x="550" y="540" />
              <mxPoint x="190" y="540" />
            </Array>
          </mxGeometry>
        </mxCell>
        <mxCell id="MkEyBu7R_c_1ipwITK1c-124" style="edgeStyle=orthogonalEdgeStyle;rounded=0;orthogonalLoop=1;jettySize=auto;html=1;entryX=0;entryY=0.5;entryDx=0;entryDy=0;" edge="1" parent="emeNvtZWzEPwYmurZ9CY-1" source="MkEyBu7R_c_1ipwITK1c-122" target="cStYqShMrgNA76c0SE9h-1">
          <mxGeometry relative="1" as="geometry" />
        </mxCell>
        <mxCell id="cStYqShMrgNA76c0SE9h-10" style="edgeStyle=orthogonalEdgeStyle;rounded=0;orthogonalLoop=1;jettySize=auto;html=1;entryX=0;entryY=0.5;entryDx=0;entryDy=0;fontSize=12;startSize=8;endSize=8;" edge="1" parent="emeNvtZWzEPwYmurZ9CY-1" source="cStYqShMrgNA76c0SE9h-6" target="MkEyBu7R_c_1ipwITK1c-88">
          <mxGeometry relative="1" as="geometry" />
        </mxCell>
      </root>
    </mxGraphModel>
  </diagram>
</mxfile>
